<mxfile host="app.diagrams.net" modified="2024-06-05T09:13:01.231Z" agent="Mozilla/5.0 (Windows NT 10.0; Win64; x64) AppleWebKit/537.36 (KHTML, like Gecko) Chrome/125.0.0.0 Safari/537.36" version="24.4.13" etag="tHg8M6c_oUztQEDnxegy" type="github">
  <diagram name="Страница — 1" id="0_z8zhj1cFTrMNLHkvcB">
    <mxGraphModel>
      <root>
        <mxCell id="0" />
        <mxCell id="1" parent="0" />
      </root>
    </mxGraphModel>
  </diagram>
</mxfile>
